<svg width="22" height="20" viewBox="0 0 22 20" fill="none" xmlns="http://www.w3.org/2000/svg">
<path d="M3.01232 8.73612C2.96934 8.59569 2.7888 8.53186 2.60396 8.53186C2.41913 8.53186 2.23859 8.59995 2.1956 8.73612L1.45196 11.1531C1.44766 11.1702 1.44336 11.1829 1.44336 11.1957C1.44336 11.3404 1.67118 11.451 1.84312 11.451C1.94199 11.451 2.02366 11.4212 2.04515 11.3361L2.18271 10.8425H3.02522L3.16277 11.3361C3.18856 11.4212 3.26594 11.451 3.3648 11.451C3.53674 11.451 3.76457 11.3446 3.76457 11.1957C3.76457 11.1829 3.76027 11.1659 3.75597 11.1531L3.01232 8.73612ZM2.31166 10.3616L2.60396 9.30207L2.89626 10.3616H2.31166Z" fill="#219653"/>
<path d="M7.5842 8.55322H6.75458C6.61273 8.55322 6.52246 8.63833 6.52246 8.74046V11.2596C6.52246 11.3873 6.67721 11.4511 6.83625 11.4511C6.991 11.4511 7.15005 11.3873 7.15005 11.2596V10.4043H7.54551C8.09572 10.4043 8.52988 10.149 8.52988 9.48514V9.46386C8.52988 8.80003 8.11292 8.55322 7.5842 8.55322ZM7.90659 9.53195C7.90659 9.80003 7.76904 9.92769 7.54551 9.92769H7.15005V9.09365H7.54551C7.76904 9.09365 7.90659 9.22131 7.90659 9.48939V9.53195Z" fill="#219653"/>
<path d="M15.5646 8.55322C15.4657 8.55322 15.3841 8.58301 15.3626 8.66812L14.8081 10.6979L14.2493 8.66812C14.2235 8.58301 14.1461 8.55322 14.0472 8.55322C13.8753 8.55322 13.6475 8.65961 13.6475 8.80854C13.6475 8.82131 13.6518 8.83407 13.6561 8.85109L14.404 11.2681C14.447 11.4085 14.6275 11.4724 14.8124 11.4724C14.9972 11.4724 15.1777 11.4043 15.2207 11.2681L15.9644 8.85109C15.9687 8.83407 15.973 8.82131 15.973 8.80854C15.9644 8.65961 15.7365 8.55322 15.5646 8.55322Z" fill="#219653"/>
<path d="M5.18478 8.55322H4.35517C4.21332 8.55322 4.12305 8.63833 4.12305 8.74046V11.2596C4.12305 11.3873 4.27779 11.4511 4.43684 11.4511C4.59159 11.4511 4.75063 11.3873 4.75063 11.2596V10.4043H5.1461C5.69631 10.4043 6.13046 10.149 6.13046 9.48514V9.46386C6.13046 8.80003 5.7135 8.55322 5.18478 8.55322ZM5.50717 9.53195C5.50717 9.80003 5.36962 9.92769 5.1461 9.92769H4.75063V9.09365H5.1461C5.36962 9.09365 5.50717 9.22131 5.50717 9.48939V9.53195Z" fill="#219653"/>
<path d="M19.5807 8.55322H18.8714C18.708 8.55322 18.6006 8.63833 18.6006 8.74046V11.2639C18.6006 11.3617 18.708 11.4511 18.8714 11.4511H19.5807C20.1309 11.4511 20.565 11.1958 20.565 10.5149V9.48939C20.565 8.80854 20.1309 8.55322 19.5807 8.55322ZM19.9417 10.5149C19.9417 10.783 19.8042 10.9107 19.5807 10.9107H19.2239V9.09365H19.5807C19.8042 9.09365 19.9417 9.22131 19.9417 9.48939V10.5149Z" fill="#219653"/>
<path d="M18.0159 9.09366C18.1362 9.09366 18.205 8.96601 18.205 8.82132C18.205 8.69367 18.1491 8.5575 18.0159 8.5575H16.5931C16.4555 8.5575 16.3223 8.62132 16.3223 8.74898V11.2639C16.3223 11.3915 16.4598 11.4554 16.5931 11.4554H18.0159C18.1491 11.4554 18.205 11.3149 18.205 11.1915C18.205 11.0469 18.1362 10.9192 18.0159 10.9192H16.9456V10.2469H17.5473C17.6806 10.2469 17.7365 10.1192 17.7365 10.0128C17.7365 9.88515 17.6677 9.77026 17.5473 9.77026H16.9456V9.10218H18.0159V9.09366Z" fill="#219653"/>
<path d="M12.3316 8.55322C11.7814 8.55322 11.3516 8.80854 11.3516 9.48939V10.5405C11.3516 11.2213 11.7814 11.4766 12.3316 11.4766C12.8818 11.4766 13.316 11.2213 13.316 10.5405V9.48939C13.316 8.80854 12.8818 8.55322 12.3316 8.55322ZM12.6927 10.5362C12.6927 10.8085 12.5552 10.9319 12.3316 10.9319C12.1081 10.9319 11.9748 10.8085 11.9748 10.5362V9.48939C11.9748 9.21705 12.1081 9.09365 12.3316 9.09365C12.5552 9.09365 12.6927 9.21705 12.6927 9.48939V10.5362Z" fill="#219653"/>
<path d="M10.4445 10.2043C10.7239 10.0979 10.9303 9.84258 10.9303 9.40003C10.9303 8.75322 10.4961 8.55322 9.9459 8.55322H9.11629C9.00023 8.55322 8.92285 8.63833 8.92285 8.74046V11.2596C8.92285 11.3873 9.0776 11.4511 9.23664 11.4511C9.39569 11.4511 9.55044 11.3873 9.55044 11.2596V10.3064H9.81265L10.3586 11.3575C10.4015 11.4426 10.4789 11.4724 10.5563 11.4724C10.7411 11.4724 10.9475 11.3064 10.9475 11.1532C10.9475 11.1319 10.9432 11.1064 10.926 11.0809L10.4445 10.2043ZM9.9416 9.82982H9.54614V9.09365H9.9416C10.1651 9.09365 10.3027 9.18301 10.3027 9.45961C10.3027 9.7362 10.1694 9.82982 9.9416 9.82982Z" fill="#219653"/>
<path d="M20.9296 5.95319H20.2461C19.4852 4.25106 18.2645 2.8 16.7041 1.74043C15.0191 0.6 13.0503 0 11.0042 0C8.95814 0 6.98941 0.6 5.30869 1.74043C3.74832 2.8 2.52754 4.25106 1.7667 5.95319H1.07893C0.485734 5.95319 0 6.43404 0 7.02128V12.9787C0 13.5702 0.485734 14.0468 1.07893 14.0468H1.7624C2.52324 15.7489 3.74402 17.2 5.30439 18.2596C6.98511 19.4 8.95814 20 10.9999 20C13.046 20 15.0148 19.4 16.6955 18.2596C18.2559 17.2 19.4766 15.7489 20.2375 14.0468H20.921C21.5185 14.0468 21.9999 13.566 21.9999 12.9787V7.02128C22.0085 6.43404 21.5227 5.95319 20.9296 5.95319ZM11.0042 0.851064C14.5591 0.851064 17.7443 2.83404 19.2961 5.95319H16.2656C15.0062 4.35319 13.0546 3.40426 11.0042 3.40426C8.95384 3.40426 7.00231 4.35319 5.74284 5.95319H4.6897C6.06953 3.8383 8.42512 2.55319 11.0042 2.55319C11.9241 2.55319 12.8268 2.71915 13.6865 3.04255C13.91 3.12766 14.1551 3.01702 14.241 2.79574C14.327 2.57447 14.2152 2.33191 13.9917 2.24681C13.0374 1.88511 12.0316 1.70213 11.0042 1.70213C9.46537 1.70213 7.96088 2.11915 6.64983 2.91064C5.41185 3.65532 4.3931 4.70213 3.68814 5.95319H2.71237C4.26414 2.83404 7.44936 0.851064 11.0042 0.851064ZM15.1222 5.95319H6.88625C7.96948 4.8766 9.45247 4.25532 11.0042 4.25532C12.556 4.25532 14.039 4.8766 15.1222 5.95319ZM11.0042 19.1532C7.44936 19.1532 4.26414 17.1702 2.71237 14.0511H5.74284C7.00231 15.6511 8.95384 16.5957 11.0042 16.5957C13.0546 16.5957 15.0062 15.6468 16.2656 14.0468H17.3188C15.939 16.1617 13.5834 17.4468 11.0042 17.4468C10.0844 17.4468 9.18166 17.2809 8.32196 16.9574C8.09843 16.8723 7.85342 16.983 7.76745 17.2043C7.68148 17.4255 7.79324 17.6681 8.01676 17.7532C8.97534 18.1149 9.98119 18.2979 11.0042 18.2979C12.5431 18.2979 14.0476 17.8808 15.3587 17.0894C16.5966 16.3447 17.6154 15.2979 18.3203 14.0468H19.2918C17.7443 17.1702 14.5591 19.1532 11.0042 19.1532ZM6.88625 14.0511H15.1222C14.039 15.1277 12.556 15.7489 11.0042 15.7489C9.45247 15.7447 7.96948 15.1234 6.88625 14.0511ZM21.1488 12.9787C21.1488 13.0979 21.0499 13.1957 20.9296 13.1957H1.07893C0.958573 13.1957 0.859706 13.0979 0.859706 12.9787V7.02128C0.859706 6.90213 0.958573 6.80426 1.07893 6.80426H20.9253C21.0456 6.80426 21.1445 6.90213 21.1445 7.02128L21.1488 12.9787Z" fill="#219653"/>
<path d="M14.7533 3.54469L14.7705 3.5532C14.835 3.5915 14.9081 3.60852 14.9812 3.60852C15.1316 3.60852 15.2778 3.53193 15.3551 3.3915C15.4712 3.18725 15.3981 2.92767 15.1875 2.81278H15.1832C14.9769 2.69363 14.7147 2.76172 14.5943 2.96597C14.4782 3.16597 14.547 3.42555 14.7533 3.54469Z" fill="#219653"/>
<path d="M7.25039 16.4553L7.2375 16.451C7.03117 16.3361 6.76896 16.4042 6.6529 16.6085C6.53683 16.8127 6.60561 17.0723 6.81194 17.1872L6.82484 17.1915C6.89361 17.2298 6.96669 17.2468 7.03976 17.2468C7.19021 17.2468 7.33206 17.1702 7.41374 17.034C7.5298 16.834 7.45672 16.5744 7.25039 16.4553Z" fill="#219653"/>
</svg>
