<svg width="20" height="21" viewBox="0 0 20 21" fill="none" xmlns="http://www.w3.org/2000/svg">
<path d="M10 20.1875C15.3516 20.1875 19.6875 15.8516 19.6875 10.5C19.6875 5.14844 15.3516 0.8125 10 0.8125C4.64844 0.8125 0.3125 5.14844 0.3125 10.5C0.3125 15.8516 4.64844 20.1875 10 20.1875ZM1.5625 10.5C1.5625 5.89062 5.3125 2.0625 10 2.0625C14.6094 2.0625 18.4375 5.85156 18.4375 10.5C18.4375 15.1484 14.6484 18.9375 10 18.9375C5.35156 18.9375 1.5625 15.1875 1.5625 10.5ZM14.4922 9.79688L7.61719 5.61719C6.99219 5.30469 6.25 5.73438 6.25 6.4375V14.5625C6.25 15.3047 6.99219 15.7344 7.61719 15.3828L14.4922 11.4375C15.1562 11.0859 15.1562 10.1875 14.4922 9.79688ZM7.5 13.625V7.41406C7.5 7.25781 7.69531 7.14062 7.85156 7.21875L13.0859 10.4219C13.2422 10.5 13.2422 10.7344 13.0859 10.8125L7.85156 13.8203C7.69531 13.9375 7.5 13.8203 7.5 13.625Z" fill="#1F2E54"/>
</svg>
