<svg width="12" height="14" viewBox="0 0 12 14" fill="none" xmlns="http://www.w3.org/2000/svg">
<path d="M10.5729 5.03125L11.2179 4.42969C11.3582 4.29297 11.3582 4.10156 11.2179 3.96484L10.7412 3.5C10.601 3.36328 10.4046 3.36328 10.2644 3.5L9.67548 4.07422C8.80609 3.30859 7.71234 2.81641 6.50641 2.67969V1.3125H7.29167C7.45994 1.3125 7.62821 1.17578 7.62821 0.984375V0.328125C7.62821 0.164062 7.45994 0 7.29167 0H4.375C4.17869 0 4.03846 0.164062 4.03846 0.328125V0.984375C4.03846 1.17578 4.17869 1.3125 4.375 1.3125H5.16026V2.67969C2.24359 3.00781 0 5.41406 0 8.3125C0 11.457 2.60817 14 5.83333 14C9.03045 14 11.6667 11.457 11.6667 8.3125C11.6667 7.10937 11.246 5.96094 10.5729 5.03125ZM5.83333 12.6875C3.33734 12.6875 1.34615 10.7461 1.34615 8.3125C1.34615 5.90625 3.33734 3.9375 5.83333 3.9375C8.30128 3.9375 10.3205 5.90625 10.3205 8.3125C10.3205 10.7461 8.30128 12.6875 5.83333 12.6875ZM6.16987 9.625C6.33814 9.625 6.50641 9.48828 6.50641 9.29688V5.57812C6.50641 5.41406 6.33814 5.25 6.16987 5.25H5.4968C5.30048 5.25 5.16026 5.41406 5.16026 5.57812V9.29688C5.16026 9.48828 5.30048 9.625 5.4968 9.625H6.16987Z" fill="#00BCD4"/>
</svg>
