<svg width="20" height="21" viewBox="0 0 20 21" fill="none" xmlns="http://www.w3.org/2000/svg">
<path d="M8.51562 6.75H7.73438C7.57812 6.75 7.5 6.86719 7.5 6.98438V14.0156C7.5 14.1719 7.57812 14.25 7.73438 14.25H8.51562C8.63281 14.25 8.75 14.1719 8.75 14.0156V6.98438C8.75 6.86719 8.63281 6.75 8.51562 6.75ZM12.2656 6.75H11.4844C11.3281 6.75 11.25 6.86719 11.25 6.98438V14.0156C11.25 14.1719 11.3281 14.25 11.4844 14.25H12.2656C12.3828 14.25 12.5 14.1719 12.5 14.0156V6.98438C12.5 6.86719 12.3828 6.75 12.2656 6.75ZM10 0.8125C4.64844 0.8125 0.3125 5.14844 0.3125 10.5C0.3125 15.8516 4.64844 20.1875 10 20.1875C15.3516 20.1875 19.6875 15.8516 19.6875 10.5C19.6875 5.14844 15.3516 0.8125 10 0.8125ZM10 18.9375C5.35156 18.9375 1.5625 15.1875 1.5625 10.5C1.5625 5.89062 5.3125 2.0625 10 2.0625C14.6094 2.0625 18.4375 5.85156 18.4375 10.5C18.4375 15.1484 14.6484 18.9375 10 18.9375Z" fill="#1F2E54"/>
</svg>
