<svg width="80" height="28" viewBox="0 0 80 28" fill="none" xmlns="http://www.w3.org/2000/svg">
<path d="M35.6277 11.3825C35.4234 11.1693 35.3257 10.9028 35.3257 10.5919V7.5982H34.5173L34.5973 6.93196H35.3257V5.77713L36.1874 5.68829V6.93196H37.4222V7.5982H36.1874V10.0678C36.1874 10.3964 36.2052 10.6185 36.2407 10.734C36.2762 10.8584 36.3562 10.9294 36.4805 10.965C36.6049 11.0005 36.8359 11.0183 37.1646 11.0183H37.3866L37.3156 11.7112H36.5427C36.1341 11.7112 35.8232 11.6046 35.6277 11.3825Z" fill="white" fill-opacity="0.6"/>
<path d="M38.1594 4.91547H39.0211V5.87486H38.1594V4.91547ZM38.1594 6.92309H39.0211V11.6135H38.1594V6.92309Z" fill="white" fill-opacity="0.6"/>
<path d="M47.4602 8.85077V11.6224H46.5986V8.86854C46.5986 8.42437 46.5097 8.10457 46.3409 7.90914C46.1722 7.70483 45.8879 7.60711 45.497 7.60711C44.6709 7.60711 44.2534 8.04239 44.2534 8.91295V11.6312H43.3917V9.0462C43.3917 8.51321 43.294 8.14011 43.1074 7.92691C42.9209 7.71371 42.6455 7.60711 42.2902 7.60711C42.0059 7.60711 41.7572 7.66041 41.544 7.75813C41.3308 7.86472 41.162 8.01574 41.0465 8.22006V11.6312H40.1848V6.92309H40.8511L40.9488 7.42056C41.1886 7.20736 41.4196 7.05634 41.6594 6.96751C41.8993 6.87868 42.1569 6.82538 42.4323 6.82538C43.143 6.82538 43.6493 7.13629 43.9425 7.76701C44.2711 7.14518 44.8397 6.82538 45.6569 6.82538C46.8651 6.82538 47.4602 7.50051 47.4602 8.85077Z" fill="white" fill-opacity="0.6"/>
<path d="M49.4592 11.3825C49.0773 11.1605 48.793 10.8673 48.5887 10.4853C48.3932 10.1122 48.2955 9.69471 48.2955 9.23278C48.2955 8.78862 48.3844 8.38887 48.5709 8.02465C48.7486 7.66044 49.0151 7.36729 49.3615 7.15409C49.708 6.94089 50.1166 6.83429 50.5963 6.83429C51.2004 6.83429 51.6801 7.01196 52.0532 7.3584C52.4263 7.71374 52.6128 8.19343 52.6128 8.81527C52.6128 8.97517 52.6039 9.12618 52.5773 9.2772H49.175C49.2283 9.88126 49.4148 10.3165 49.7346 10.5742C50.0455 10.8318 50.4453 10.9561 50.9428 10.9561C51.4313 10.9561 51.8844 10.8673 52.293 10.6808L52.4085 11.3648C51.8666 11.6046 51.3425 11.729 50.8362 11.729C50.2943 11.7112 49.8412 11.6046 49.4592 11.3825ZM51.7245 8.67313C51.7245 8.33557 51.6268 8.06907 51.4402 7.88252C51.2448 7.68709 50.9605 7.59825 50.5785 7.59825C50.2054 7.59825 49.9212 7.68709 49.708 7.87364C49.4948 8.0513 49.3438 8.32668 49.2549 8.68202H51.7245V8.67313Z" fill="white" fill-opacity="0.6"/>
<path d="M53.4833 6.92309H54.1939L54.3005 7.69594C54.5404 7.39391 54.7714 7.17183 54.9934 7.03858C55.2155 6.89644 55.4465 6.82538 55.6863 6.82538C55.7663 6.82538 55.8374 6.83426 55.9084 6.85203L55.8196 7.80254C55.7396 7.78478 55.6419 7.77589 55.5353 7.77589C55.2955 7.77589 55.0734 7.82919 54.8691 7.93579C54.6559 8.04239 54.5049 8.16676 54.4071 8.30001V11.6135H53.4922V6.92309H53.4833Z" fill="white" fill-opacity="0.6"/>
<path d="M50.5786 13.4523L47.2652 22.6021H44.7156L42.6547 16.9168L40.5316 22.6021H37.9821L34.6864 13.4523H37.1826L39.3413 19.644L41.5887 13.4523H43.8362L46.0126 19.644L48.2423 13.4523H50.5786Z" fill="white"/>
<path d="M50.8805 18.0272C50.8805 15.2734 53.0036 13.3191 55.9173 13.3191C58.8222 13.3191 60.9364 15.2734 60.9364 18.0272C60.9364 20.7811 58.831 22.7354 55.9173 22.7354C53.0125 22.7443 50.8805 20.7899 50.8805 18.0272ZM58.2448 18.0272C58.2448 16.446 57.2409 15.4955 55.9173 15.4955C54.5937 15.4955 53.5721 16.446 53.5721 18.0272C53.5721 19.6085 54.5937 20.559 55.9173 20.559C57.2409 20.5679 58.2448 19.6174 58.2448 18.0272Z" fill="white"/>
<path d="M68.3807 13.3191V15.7709C68.1587 15.7531 67.9899 15.7354 67.7856 15.7354C66.3198 15.7354 65.3515 16.5348 65.3515 18.2849V22.6021H62.6954V13.4523H65.2272V14.6605C65.8845 13.781 66.9772 13.3191 68.3807 13.3191Z" fill="white"/>
<path d="M73.8973 19.0222L72.6181 20.2836V22.611H69.962V9.98785H72.6181V17.13L76.5002 13.4523H79.6626L75.8517 17.3343L80.0002 22.611H76.7844L73.8973 19.0222Z" fill="white"/>
<path d="M17.3905 0.917978C27.473 3.62738 29.2675 8.49543 26.8868 17.3965C24.506 26.2976 20.5174 29.6199 10.4349 26.9105C0.352327 24.21 -1.4421 19.3331 0.938625 10.432C3.31935 1.53093 7.29907 -1.79143 17.3905 0.917978Z" fill="#F7941D"/>
<path d="M14.4324 17.4765L18.4388 21.6161C18.7141 21.9004 19.1672 21.9092 19.4603 21.6339C19.7535 21.3585 19.7535 20.9054 19.4781 20.6123L15.4717 16.4727C15.1964 16.1884 14.7433 16.1795 14.4502 16.4549C14.157 16.7303 14.157 17.1922 14.4324 17.4765Z" fill="white"/>
<path d="M13.4462 13.9853C13.846 13.9853 14.1658 13.6655 14.1658 13.2658V5.34186C14.1658 4.94211 13.846 4.62231 13.4462 4.62231C13.0465 4.62231 12.7267 4.94211 12.7267 5.34186V13.2569C12.7267 13.6566 13.0465 13.9853 13.4462 13.9853Z" fill="white"/>
<path d="M10.5681 15.4244C10.5681 13.8343 11.8562 12.5462 13.4463 12.5462C15.0364 12.5462 16.3245 13.8343 16.3245 15.4244C16.3245 17.0145 15.0364 18.3026 13.4463 18.3026C11.8562 18.3026 10.5681 17.0056 10.5681 15.4244ZM12.0072 15.4244C12.0072 16.215 12.6557 16.8635 13.4463 16.8635C14.2369 16.8635 14.8854 16.215 14.8854 15.4244C14.8854 14.6338 14.2369 13.9853 13.4463 13.9853C12.6557 13.9853 12.0072 14.6249 12.0072 15.4244Z" fill="white"/>
</svg>
