<?xml version="1.0" encoding="utf-8"?>
<!-- Generator: Adobe Illustrator 22.1.0, SVG Export Plug-In . SVG Version: 6.00 Build 0)  -->
<svg version="1.1" id="Layer_1" xmlns="http://www.w3.org/2000/svg" xmlns:xlink="http://www.w3.org/1999/xlink" x="0px" y="0px"
	 viewBox="0 0 145 28" style="enable-background:new 0 0 145 28;" xml:space="preserve">
<style type="text/css">
	.st0{fill:#114B87;}
	.st1{fill:#F7941D;}
</style>
<g>
	<path class="st0" d="M3.4,24.3l6.2,3.6c0.4,0.2,0.8,0.1,1.1-0.2c0.8-1,1.9-1.6,3.3-1.6c1.3,0,2.5,0.6,3.3,1.6
		c0.2,0.3,0.7,0.4,1.1,0.2l6.2-3.6c0.4-0.2,0.5-0.8,0.2-1.2c-0.3-0.5-0.6-0.9-1-1.3c-1-1.1-2.1-2-3.3-2.7l-0.8-0.5l0,0
		c0,0-0.1,0-0.1-0.1c-0.2-0.1-0.6-0.1-0.7,0.1c-1.2,1.3-2.9,2.1-4.7,2.1s-3.6-0.8-4.7-2.1c-0.2-0.2-0.5-0.3-0.7-0.1l0,0l-1,0.6
		c-1.6,0.9-3,2.1-4,3.6c-0.1,0.1-0.2,0.3-0.3,0.5C2.8,23.5,2.9,24,3.4,24.3"/>
	<path class="st1" d="M4.3,3.7C4,3.9,3.8,4.3,4,4.7c0.4,1.2,0.4,2.5-0.3,3.7c-0.7,1.1-1.8,1.9-3,2.1C0.3,10.5,0,10.8,0,11.2v7.2
		c0,0.5,0.4,0.9,0.8,0.8c1.8-0.1,3.6-0.6,5.2-1.5l0.7-0.4c0.2-0.1,0.4-0.2,0.6-0.4c0.2-0.2,0.4-0.5,0.2-0.7
		c-0.5-1.7-0.4-3.5,0.6-5.1c1-1.6,2.5-2.7,4.2-3.1c0.3-0.1,0.5-0.3,0.5-0.6c0-0.3,0-0.7,0.1-1V5.9c0-1.9-0.5-3.8-1.3-5.5
		c-0.2-0.4-0.7-0.6-1.1-0.4L4.3,3.7z"/>
	<path class="st1" d="M24,8.3c-0.7-1.1-0.7-2.5-0.3-3.7c0.1-0.4,0-0.8-0.4-1l-6.2-3.6C16.7-0.1,16.2,0,16,0.5
		c-0.8,1.7-1.3,3.6-1.3,5.5v0.5c0,0.3,0,0.7,0.1,1c0,0.3,0.2,0.5,0.5,0.6c1.7,0.4,3.2,1.4,4.2,3.1c0.9,1.6,1.1,3.5,0.6,5.1
		c-0.1,0.3,0,0.6,0.2,0.7c0.2,0.1,0.4,0.3,0.6,0.4l0.7,0.4c1.6,0.9,3.4,1.4,5.2,1.5c0.5,0,0.8-0.4,0.8-0.8v-7.2
		c0-0.4-0.3-0.7-0.7-0.8C25.8,10.2,24.7,9.5,24,8.3"/>
	<g>
		<path class="st0" d="M58.6,8.1l-4.3,14.1h-4.9l-2.2-7.5l-2.3,7.5h-4.9L35.6,8.1h4.7l2.4,8l2.5-8h4.2l2.4,8.1l2.5-8.1
			C54.3,8.1,58.6,8.1,58.6,8.1z"/>
		<path class="st0" d="M58.1,16.7c0-3.3,2.6-5.7,6.2-5.7s6.2,2.3,6.2,5.7s-2.5,5.7-6.2,5.7C60.7,22.4,58.1,20,58.1,16.7z M66,16.7
			c0-1.4-0.7-2.2-1.7-2.2c-1,0-1.7,0.7-1.7,2.2s0.7,2.2,1.7,2.2C65.2,18.8,66,18.1,66,16.7z"/>
		<path class="st0" d="M79.4,10.9v4c-0.4-0.1-0.7-0.1-1-0.1c-1.3,0-2.3,0.6-2.3,2.4v4.9h-4.4V11.1H76v1.2
			C76.7,11.4,77.9,10.9,79.4,10.9z"/>
		<path class="st0" d="M85.7,18.8L85,19.6v2.6h-4.4v-15H85v7.1l3-3.2h5.2L88.9,16l4.7,6.3h-5.3L85.7,18.8z"/>
		<path class="st0" d="M97.7,11.8h-4V8.1h12.5v3.7h-4v10.4h-4.6L97.7,11.8L97.7,11.8z"/>
		<path class="st0" d="M106.7,7.9c0-1.3,1-2.3,2.6-2.3c1.6,0,2.6,0.9,2.6,2.2c0,1.4-1,2.4-2.6,2.4C107.7,10.2,106.7,9.2,106.7,7.9z
			 M107.1,11.1h4.4v11h-4.4V11.1z"/>
		<path class="st0" d="M131.7,15.9v6.3h-4.4v-5.5c0-1.4-0.5-1.9-1.2-1.9c-0.8,0-1.4,0.5-1.4,2v5.4h-4.4v-5.5c0-1.4-0.5-1.9-1.2-1.9
			c-0.8,0-1.4,0.5-1.4,2v5.4h-4.4V11.1h4.2v1c0.8-0.8,1.8-1.2,3-1.2c1.4,0,2.6,0.5,3.3,1.7c0.8-1.1,2.1-1.7,3.5-1.7
			C129.8,10.9,131.7,12.4,131.7,15.9z"/>
		<path class="st0" d="M145,17.7h-7.4c0.3,0.9,1.1,1.3,2.1,1.3c1,0,1.5-0.2,2.2-0.8l2.3,2.4c-1,1.2-2.5,1.8-4.6,1.8
			c-3.9,0-6.4-2.5-6.4-5.7c0-3.3,2.6-5.7,6-5.7c3.1,0,5.8,2,5.8,5.7C145,17,145,17.4,145,17.7z M137.5,15.5h3.4
			c-0.2-0.9-0.8-1.5-1.7-1.5C138.3,14,137.7,14.6,137.5,15.5z"/>
	</g>
</g>
</svg>
