<svg xmlns="http://www.w3.org/2000/svg" viewBox="0 0 86 24"><defs><style>.cls-1{fill:#fff;}</style></defs><title>Asset 1</title><g id="Layer_2" data-name="Layer 2"><g id="Layer_1-2" data-name="Layer 1"><path class="cls-1" d="M11.74,14c-.16.2-.35.45-.54.72a7.26,7.26,0,0,1-4.92-4.09.4.4,0,0,1,.2-.54.41.41,0,0,1,.54.2A6.51,6.51,0,0,0,11.74,14Z"/><path class="cls-1" d="M19.56,10.66a7.3,7.3,0,0,1-4.93,4.09c-.19-.27-.38-.52-.53-.72a6.51,6.51,0,0,0,4.71-3.71.41.41,0,0,1,.75.34Z"/><path class="cls-1" d="M12.92,11.6A3.88,3.88,0,0,1,9.37,9.28.41.41,0,1,1,10.11,9a3.06,3.06,0,0,0,5.61,0,.41.41,0,0,1,.75.33A3.89,3.89,0,0,1,12.92,11.6Z"/><path class="cls-1" d="M9.79,17.05c-.12.25-.24.5-.35.75a10.71,10.71,0,0,1-6.28-5.75.41.41,0,1,1,.74-.34A9.9,9.9,0,0,0,9.79,17.05Z"/><path class="cls-1" d="M22.68,12.05a10.75,10.75,0,0,1-6.29,5.75c-.11-.25-.23-.5-.35-.75a9.88,9.88,0,0,0,5.89-5.34.41.41,0,0,1,.75.34Z"/><path class="cls-1" d="M8.76,21.18A14.15,14.15,0,0,1,0,13.44a.4.4,0,0,1,.2-.54.4.4,0,0,1,.54.2,13.37,13.37,0,0,0,8,7.22A4.12,4.12,0,0,0,8.76,21.18Z"/><path class="cls-1" d="M25.8,13.44a14.2,14.2,0,0,1-8.73,7.74,4.22,4.22,0,0,0,0-.87,13.29,13.29,0,0,0,8-7.21.41.41,0,0,1,.54-.21A.42.42,0,0,1,25.8,13.44Z"/><path class="cls-1" d="M12.92,13.75s-6.88,7.76-1.2,10a3.19,3.19,0,0,0,2.39,0C19.79,21.51,12.92,13.75,12.92,13.75ZM10.78,19.2c.22,3.39,2.14,3.9,2.14,3.9C9.3,22.85,10.78,19.2,10.78,19.2Z"/><line class="cls-1" x1="9.35" y1="3.84" x2="9.35" y2="3.84"/><line class="cls-1" x1="16.49" y1="3.84" x2="16.48" y2="3.84"/><line class="cls-1" x1="16.49" y1="3.84" x2="16.48" y2="3.84"/><line class="cls-1" x1="9.35" y1="3.84" x2="9.35" y2="3.84"/><path class="cls-1" d="M12.92,6.34a19.83,19.83,0,0,0,4.35-.45l-.65.91h0a12,12,0,0,1-3.7.53,11.88,11.88,0,0,1-3.7-.53l-.65-.91A19.7,19.7,0,0,0,12.92,6.34Z"/><path class="cls-1" d="M12.92,4.81a16.59,16.59,0,0,0,5.74-.87l-.57.79-.38.54a18.06,18.06,0,0,1-4.79.57,18.2,18.2,0,0,1-4.8-.57l-.38-.54-.57-.79A16.65,16.65,0,0,0,12.92,4.81Z"/><path class="cls-1" d="M19.79,2.15a.68.68,0,0,1-.11.35l-.05.07-.13.19-.13.18a.52.52,0,0,1-.11.1,2.74,2.74,0,0,1-.47.3,14.72,14.72,0,0,1-5.87,1,14.69,14.69,0,0,1-5.87-1A2.51,2.51,0,0,1,6.57,3l-.11-.11-.12-.17-.15-.21h0A.69.69,0,0,1,6,2.15a.7.7,0,0,1,0-.25C6.51.92,9.41.16,12.92.16s6.39.76,6.82,1.74A.7.7,0,0,1,19.79,2.15Z"/><path class="cls-1" d="M28.57,2.1H25.83V.16h7.84V2.1H30.89v8.3H28.57Z"/><path class="cls-1" d="M41,6.08H37.22V8.51h4.19V10.4H34.9V.16h6.3V2.05h-4V4.18H41Z"/><path class="cls-1" d="M50.48,10.11a6.6,6.6,0,0,1-2.62.45c-3.53,0-5.34-2.21-5.34-5.12A5.22,5.22,0,0,1,48.09,0a6.05,6.05,0,0,1,2.52.46L50.14,2.3a4.93,4.93,0,0,0-1.94-.38A3.07,3.07,0,0,0,44.94,5.3a3.05,3.05,0,0,0,3.27,3.35,5.9,5.9,0,0,0,1.93-.34Z"/><path class="cls-1" d="M60.89,5.17c0,3.36-2,5.4-5,5.4s-4.81-2.3-4.81-5.21C51.06,2.29,53,0,56,0S60.89,2.35,60.89,5.17Zm-7.38.15c0,2,.94,3.42,2.49,3.42s2.45-1.49,2.45-3.47S57.58,1.84,56,1.84,53.51,3.32,53.51,5.32Z"/><path class="cls-1" d="M64,2.1H61.21V.16h7.84V2.1H66.27v8.3H64Z"/><path class="cls-1" d="M76.36,6.08H72.61V8.51H76.8V10.4H70.29V.16H76.6V2.05h-4V4.18h3.75Z"/><path class="cls-1" d="M85.87,10.11a6.6,6.6,0,0,1-2.62.45c-3.53,0-5.34-2.21-5.34-5.12C77.91,2,80.4,0,83.49,0A6,6,0,0,1,86,.46L85.53,2.3a4.93,4.93,0,0,0-1.94-.38A3.07,3.07,0,0,0,80.33,5.3,3.06,3.06,0,0,0,83.6,8.65a5.85,5.85,0,0,0,1.93-.34Z"/><path class="cls-1" d="M51.79,22.26a4,4,0,0,0,1.94.52c1,0,1.47-.44,1.47-1.1s-.4-1-1.43-1.34c-1.33-.48-2.17-1.19-2.17-2.35,0-1.32,1.09-2.32,2.84-2.32a4.32,4.32,0,0,1,1.93.4L56,17.26a3.31,3.31,0,0,0-1.6-.38c-.93,0-1.33.5-1.33,1s.46.91,1.54,1.33c1.39.52,2.07,1.23,2.07,2.39s-1,2.42-3,2.42a4.79,4.79,0,0,1-2.17-.5Z"/><path class="cls-1" d="M59.07,21.37a1.59,1.59,0,0,0,1.79,1.51,4.28,4.28,0,0,0,1.61-.27l.22,1a5.55,5.55,0,0,1-2,.36,2.76,2.76,0,0,1-3-2.95,2.88,2.88,0,0,1,2.84-3.13c1.89,0,2.51,1.55,2.51,2.83a3.17,3.17,0,0,1,0,.63Zm2.56-1a1.26,1.26,0,0,0-1.21-1.43,1.44,1.44,0,0,0-1.35,1.43Z"/><path class="cls-1" d="M64.2,19.77c0-.67,0-1.23,0-1.73h1.29l.07.87h0a2.12,2.12,0,0,1,1.85-1c1,0,2.07.65,2.07,2.5v3.46H68V20.58c0-.84-.31-1.48-1.11-1.48a1.22,1.22,0,0,0-1.14.87,1.41,1.41,0,0,0-.06.47v3.43H64.2Z"/><path class="cls-1" d="M71,22.52a3.35,3.35,0,0,0,1.5.41c.64,0,.93-.26.93-.64s-.24-.6-1-.85c-1.13-.4-1.61-1-1.6-1.7A2,2,0,0,1,73,17.91a3.44,3.44,0,0,1,1.54.34l-.29,1.05A2.51,2.51,0,0,0,73,19c-.52,0-.81.25-.81.61s.28.55,1,.81c1,.39,1.54.93,1.55,1.79,0,1-.83,1.82-2.37,1.82a3.72,3.72,0,0,1-1.76-.41Z"/><path class="cls-1" d="M81.53,20.9a2.88,2.88,0,0,1-3,3.1,2.81,2.81,0,0,1-2.91-3,2.87,2.87,0,0,1,3-3.09A2.79,2.79,0,0,1,81.53,20.9ZM77.15,21c0,1.12.55,2,1.45,2s1.42-.82,1.42-2c0-.91-.41-2-1.41-2S77.15,20,77.15,21Z"/><path class="cls-1" d="M82.74,19.92c0-.79,0-1.36,0-1.88H84l0,1.11h0a1.72,1.72,0,0,1,1.58-1.24,1.83,1.83,0,0,1,.35,0v1.39a2.31,2.31,0,0,0-.43,0,1.3,1.3,0,0,0-1.31,1.12,2,2,0,0,0-.05.45v3H82.74Z"/></g></g></svg>