<svg width="14" height="14" viewBox="0 0 14 14" fill="none" xmlns="http://www.w3.org/2000/svg">
<path d="M6.76874 0C3.0235 0 0 3.10006 0 6.94013C0 10.0402 1.98966 12.6802 4.74007 13.5603L5.07168 12.2602C2.88696 11.5202 1.30693 9.42018 1.30693 6.94013C1.30693 3.84007 3.74524 1.34003 6.76874 1.34003C9.07051 1.34003 11.0407 2.80005 11.8404 4.86009L12.8938 3.96008C11.8209 1.62003 9.48014 0 6.76874 0Z" fill="#FF9800"/>
<path d="M5.08865 10.38C4.9326 10.48 4.73753 10.46 4.62049 10.3L4.11333 9.57994C4.01579 9.41993 4.0353 9.21993 4.19135 9.09993L6.02496 7.7399V3.77983C6.02496 3.59982 6.18101 3.43982 6.35657 3.43982H7.21485C7.39041 3.43982 7.54646 3.59982 7.54646 3.77983V8.37991C7.54646 8.47992 7.48794 8.57992 7.40992 8.65992L5.08865 10.38Z" fill="#FF9800"/>
<path d="M6.33887 11.5401L11.2935 6.45996L12.893 8.09999L7.9384 13.1801L6.33887 11.5401Z" fill="#FF9800"/>
<path d="M5.53906 14.0001L7.29464 13.5001L6.02672 12.2001L5.53906 14.0001Z" fill="#FF9800"/>
<path d="M13.3418 5.59985C13.0102 5.25985 12.4835 5.25985 12.1519 5.59985L11.8008 5.95986L13.4003 7.59989L13.7514 7.23989C14.083 6.89988 14.083 6.35987 13.7514 6.01986L13.3418 5.59985Z" fill="#FF9800"/>
</svg>
